<?xml version="1.0" encoding="UTF-8"?>
<svg id="Ebene_1" data-name="Ebene 1" xmlns="http://www.w3.org/2000/svg" version="1.1" viewBox="0 0 1365.82 460.54">
  <defs>
    <style>
      .cls-1 {
        fill: #13100d;
        stroke-width: 0px;
      }
    </style>
  </defs>
  <path class="cls-1" d="M326.85,92.95c-38.57,0-65.63,18.42-65.63,69.66v74.27c0,51.23,27.06,69.66,65.63,69.66s65.64-18.42,65.64-69.66v-74.27c0-51.23-27.06-69.66-65.64-69.66ZM352.76,242.06c0,23.03-10.08,29.36-25.91,29.36s-25.9-6.33-25.9-29.36v-84.63c0-23.03,10.07-29.36,25.9-29.36s25.91,6.33,25.91,29.36v84.63ZM136.24,374.8h-.12l-24.6-35.27h-6.36v42.48h5.04v-35.29h.12l24.6,35.29h6.36v-42.48h-5.04v35.27ZM594.19,342.01c-1.38-.9-2.95-1.54-4.73-1.92-1.78-.38-3.66-.56-5.61-.56h-12.6v42.48h5.04v-19.08h8.52c1.48,0,3.04-.19,4.68-.54,1.64-.36,3.15-.98,4.54-1.86,1.38-.88,2.51-2.09,3.39-3.6.88-1.52,1.32-3.45,1.32-5.77s-.41-4.05-1.23-5.55c-.82-1.5-1.92-2.7-3.3-3.6ZM590.95,356.53c-1.58,1.15-3.63,1.71-6.15,1.71h-8.52v-14.04h8.52c2.52,0,4.57.57,6.15,1.71,1.58,1.14,2.37,2.91,2.37,5.31s-.79,4.17-2.37,5.31ZM578.32,95.83h-36.27v123.2h-.57l-55.27-123.2h-43.46v207.82h36.27v-134.13h.57l60.74,134.13h37.99V95.83ZM334.84,374.8h-.12l-10.38-35.27h-5.64l-10.44,35.27h-.12l-9.66-35.27h-5.59l12.42,42.48h5.52l10.56-36h.13l10.5,36h5.46l12.48-42.48h-5.29l-9.84,35.27ZM222.42,228.24h-39.73v13.82c0,23.03-10.08,29.36-25.91,29.36s-25.9-6.33-25.9-29.36v-84.63c0-23.03,10.07-29.36,25.9-29.36s25.91,6.33,25.91,29.36v5.77h39.73v-.59c0-51.23-27.06-69.66-65.64-69.66s-65.62,18.42-65.62,69.66v74.27c0,51.23,27.06,69.66,65.62,69.66s65.64-18.42,65.64-69.66v-8.64ZM503.84,362.03c-1.18-.93-2.54-1.69-4.09-2.29-1.54-.6-3.13-1.16-4.77-1.68-1.68-.52-3.09-1.04-4.25-1.56-1.16-.53-2.09-1.08-2.77-1.69-.68-.6-1.16-1.27-1.46-2-.3-.74-.45-1.59-.45-2.55,0-1.23.26-2.32.77-3.23.52-.93,1.21-1.66,2.07-2.23.86-.55,1.83-.97,2.91-1.25,1.08-.28,2.18-.42,3.3-.42,1.51,0,2.98.3,4.37.93,1.41.62,2.52,1.62,3.36,2.98l4.14-3.6c-1.56-1.84-3.33-3.13-5.31-3.88-1.98-.74-4.17-1.1-6.56-1.1-1.89,0-3.68.26-5.4.77-1.72.53-3.26,1.29-4.62,2.31-1.36,1.02-2.45,2.3-3.25,3.81-.8,1.52-1.2,3.3-1.2,5.34,0,1.76.27,3.27.81,4.54.54,1.25,1.28,2.33,2.21,3.23s2.05,1.66,3.33,2.29c1.29.62,2.68,1.17,4.21,1.65,1.87.63,3.52,1.2,4.92,1.68,1.39.48,2.55,1.02,3.48,1.62.91.6,1.59,1.31,2.04,2.13.43.82.66,1.89.66,3.21,0,1.2-.28,2.26-.84,3.18-.55.93-1.28,1.69-2.16,2.31-.88.62-1.87,1.09-2.96,1.42-1.1.32-2.19.48-3.27.48-1.84,0-3.59-.41-5.23-1.21-1.64-.8-2.92-1.98-3.84-3.54l-4.31,3.54c.71,1.08,1.58,1.99,2.58,2.73,1,.74,2.07,1.35,3.21,1.8,1.14.46,2.33.8,3.57,1.02,1.23.21,2.47.33,3.71.33,1.92,0,3.79-.25,5.58-.75,1.8-.5,3.39-1.27,4.77-2.29,1.38-1.02,2.5-2.31,3.33-3.87.84-1.56,1.27-3.4,1.27-5.52s-.35-3.81-1.05-5.19c-.7-1.38-1.64-2.53-2.81-3.45ZM212.09,362.2h20.21v-4.68h-20.21v-13.32h21.66v-4.68h-26.7v42.48h27.77v-4.69h-22.73v-15.12ZM906.66,210.97c22.16-8.34,31.37-27.06,31.37-52.97,0-39.14-22.73-62.17-70.52-62.17h-57.56v207.82h39.71v-84.62h19.01l34.54,84.62h42.6l-39.14-92.68ZM870.1,186.21h-20.44v-57.56h20.44c17.57,0,28.22,8.64,28.22,28.78s-10.65,28.78-28.22,28.78ZM1286.91,95.83h-38.86l-36.26,148.52h-.59l-36.55-148.52h-39.15l53.25,207.82h45.2l52.96-207.82ZM1151.18,376.22c-1,0-1.85.34-2.55,1.04-.7.7-1.05,1.55-1.05,2.55s.37,1.85,1.11,2.54c.74.7,1.57,1.05,2.49,1.05s1.75-.35,2.49-1.05c.74-.69,1.11-1.55,1.11-2.54s-.35-1.85-1.05-2.55c-.7-.7-1.55-1.04-2.55-1.04ZM1235.07,376.22c-1,0-1.85.34-2.55,1.04-.69.7-1.04,1.55-1.04,2.55s.36,1.85,1.1,2.54c.75.7,1.57,1.05,2.5,1.05s1.75-.35,2.48-1.05c.75-.69,1.11-1.55,1.11-2.54s-.35-1.85-1.04-2.55c-.7-.7-1.56-1.04-2.55-1.04ZM1211.98,374.45h-.12l-13.08-34.92h-5.7l16.25,42.48h4.86l16.62-42.48h-5.34l-13.5,34.92ZM1113.17,362.2h20.21v-4.68h-20.21v-13.32h21.66v-4.68h-26.7v42.48h27.77v-4.69h-22.73v-15.12ZM792.22,358.78c1.87-1.92,2.81-4.44,2.81-7.56,0-2.64-.49-4.72-1.5-6.27-1-1.54-2.3-2.71-3.89-3.5-1.61-.81-3.41-1.32-5.44-1.56-2.02-.25-4.04-.36-6.08-.36h-10.86v42.48h5.04v-19.08h6.48l11.52,19.08h6.18l-12.06-19.56c3.32-.53,5.92-1.75,7.8-3.67ZM776.8,358.24h-4.5v-14.04h7.08c1.24,0,2.47.08,3.69.25,1.22.15,2.32.48,3.3.98.97.5,1.77,1.21,2.37,2.13.6.91.9,2.14.9,3.66,0,1.76-.41,3.12-1.23,4.05s-1.86,1.63-3.13,2.06c-1.25.45-2.64.7-4.14.79-1.5.08-2.95.12-4.35.12ZM695.06,128.07c14.39,0,24.19,8.64,24.19,35.4h39.71c-1.44-47.2-23.31-70.52-63.9-70.52s-65.62,18.42-65.62,69.66v74.27c0,51.23,27.06,69.66,65.62,69.66,14.98,0,26.48-8.06,37.14-20.16l6.05,17.27h20.72v-106.5h-67.64v32.81h27.93v12.67c0,17.85-9.21,28.78-24.19,28.78-15.83,0-25.9-6.33-25.9-29.36v-84.63c0-23.03,10.07-29.36,25.9-29.36ZM697.69,344.78c-1.98-1.98-4.31-3.53-7.02-4.65-2.7-1.12-5.67-1.68-8.91-1.68s-6.21.55-8.92,1.68c-2.7,1.12-5.04,2.67-7.02,4.65-1.98,1.98-3.52,4.34-4.62,7.08-1.1,2.74-1.65,5.71-1.65,8.91s.55,6.18,1.65,8.92c1.1,2.73,2.64,5.1,4.62,7.08,1.98,1.98,4.32,3.53,7.02,4.65,2.71,1.11,5.67,1.68,8.92,1.68s6.21-.56,8.91-1.68c2.71-1.12,5.04-2.67,7.02-4.65,1.98-1.98,3.52-4.35,4.62-7.08,1.1-2.74,1.65-5.72,1.65-8.92s-.55-6.16-1.65-8.91c-1.1-2.74-2.64-5.1-4.62-7.08ZM697.33,367.64c-.82,2.13-1.97,4.01-3.45,5.6-1.48,1.61-3.25,2.86-5.31,3.79-2.06.91-4.34,1.38-6.81,1.38s-4.76-.47-6.81-1.38c-2.06-.93-3.83-2.18-5.31-3.79-1.49-1.59-2.64-3.47-3.46-5.6-.82-2.14-1.23-4.43-1.23-6.88s.41-4.72,1.23-6.87,1.97-4.01,3.46-5.61c1.48-1.59,3.25-2.86,5.31-3.77,2.05-.93,4.32-1.38,6.81-1.38s4.75.46,6.81,1.38c2.06.91,3.83,2.18,5.31,3.77,1.48,1.61,2.62,3.47,3.45,5.61.82,2.14,1.23,4.43,1.23,6.87s-.41,4.73-1.23,6.88ZM853.42,344.2h14.04v37.8h5.04v-37.8h14.04v-4.68h-33.12v4.68ZM968.84,362.03c-1.18-.93-2.54-1.69-4.09-2.29-1.54-.6-3.13-1.16-4.77-1.68-1.68-.52-3.09-1.04-4.25-1.56-1.16-.53-2.09-1.08-2.77-1.69-.68-.6-1.16-1.27-1.46-2-.3-.74-.45-1.59-.45-2.55,0-1.23.26-2.32.77-3.23.52-.93,1.21-1.66,2.07-2.23.86-.55,1.83-.97,2.91-1.25,1.08-.28,2.18-.42,3.3-.42,1.51,0,2.98.3,4.37.93,1.41.62,2.52,1.62,3.36,2.98l4.14-3.6c-1.56-1.84-3.33-3.13-5.31-3.88-1.98-.74-4.17-1.1-6.56-1.1-1.89,0-3.68.26-5.4.77-1.72.53-3.26,1.29-4.62,2.31-1.36,1.02-2.45,2.3-3.25,3.81-.8,1.52-1.2,3.3-1.2,5.34,0,1.76.27,3.27.81,4.54.54,1.25,1.28,2.33,2.21,3.23s2.05,1.66,3.33,2.29c1.29.62,2.68,1.17,4.21,1.65,1.87.63,3.52,1.2,4.92,1.68,1.39.48,2.55,1.02,3.48,1.62.91.6,1.59,1.31,2.04,2.13.43.82.66,1.89.66,3.21,0,1.2-.28,2.26-.84,3.18-.55.93-1.28,1.69-2.16,2.31-.88.62-1.87,1.09-2.96,1.42-1.1.32-2.19.48-3.27.48-1.84,0-3.59-.41-5.23-1.21-1.64-.8-2.92-1.98-3.84-3.54l-4.31,3.54c.71,1.08,1.58,1.99,2.58,2.73,1,.74,2.07,1.35,3.21,1.8,1.14.46,2.33.8,3.57,1.02,1.23.21,2.47.33,3.71.33,1.92,0,3.79-.25,5.58-.75,1.8-.5,3.39-1.27,4.77-2.29,1.38-1.02,2.5-2.31,3.33-3.87.84-1.56,1.27-3.4,1.27-5.52s-.35-3.81-1.05-5.19c-.7-1.38-1.64-2.53-2.81-3.45ZM1074.14,95.83h-50.95l-51.53,207.82h38.29l65.05-48.51,11.22,48.51h37.99l-50.07-207.82ZM1023.26,247.02l24.69-106.28h.59l16.92,73.12-42.19,33.16Z"/>
</svg>