<?xml version="1.0" encoding="UTF-8"?>
<svg id="Ebene_2" xmlns="http://www.w3.org/2000/svg" viewBox="0 0 2241.93 1049.3">
  <defs>
    <style>
      .cls-1 {
        fill: #1d1d1b;
      }
    </style>
  </defs>
  <g id="Ebene_1-2" data-name="Ebene_1">
    <g>
      <path class="cls-1" d="M2116.3,460.47l-424.87,162.92-563.43-133.58,23.91,400.92-113.24-14.69,6.04,138.36,719.72,34.9,477.49-69.19-125.63-519.65ZM1391.57,913.8c-4.05,13.84-13.18,23.65-25.19,31.03-9.57,5.87-20.12,7.99-31.27,8.48-14.26.63-28.3-.79-42.24-3.29-9.03-1.62-18.1-3.74-26.32-7.9-7.03-3.56-14.03-7.29-19.9-12.87-6.12-5.82-12.69-11.2-17.38-18.31-3.55-5.38-7-10.86-9.98-16.56-1.56-3-2.44-6.53-2.89-9.92-1.18-8.85-1.85-17.76-2.93-26.62-.66-5.41-1.87-10.75-2.54-16.16-.55-4.42-.84-8.89-.96-13.34-.08-3.27,1.39-4.41,4.79-3.93,9.34,1.32,18.66,2.78,28,4.12,6.63.94,13.28,1.76,19.92,2.64,1.96.26,3.98.33,5.88.85,3.62.99,6.04,3.33,6.84,7.11.26,1.22.51,2.44.58,3.68.41,7.03,2.75,13.58,4.79,20.23,1.72,5.59,4.69,10.39,8.42,14.76,4.59,5.38,10.58,8.22,17.59,8.5,6.44.26,11.56-2.05,14.49-8.34,1.7-3.66,2.94-7.3,3.18-11.36.49-8.26-.47-16.37-2.31-24.37-.54-2.37-1.68-4.67-2.89-6.81-6.11-10.8-14.75-19.29-24.87-26.25-9.2-6.32-18.64-12.3-27.97-18.42-1.25-.81-2.46-1.7-3.79-2.37-13.46-6.77-24.74-16.53-35.71-26.58-11.28-10.34-19.74-22.94-26.11-36.81-1.62-3.53-2.37-7.6-2.78-11.5-1.22-11.59-2.11-23.22-3.07-34.84-.88-10.63-1.43-21.29-2.59-31.88-1.12-10.21.85-19.75,4.89-28.99,3.18-7.28,6.8-14.15,12.26-20.23,9.83-10.94,22.01-15.93,36.28-16.02,7.16-.04,14.4.74,21.46,1.93,13.52,2.27,26.45,6.77,39.04,12.1,4.52,1.91,8.65,4.82,12.82,7.47,9.31,5.92,17,13.64,24.01,22.08.63.76,1.26,1.54,1.77,2.39,5.88,9.8,11.34,19.81,15.63,32.42.47,2.1,1.29,5.98,2.23,9.83.88,3.61,1.74,7.24,2.88,10.77,1.79,5.5,2.35,11.17,2.52,16.88.14,5.09-2.37,7.36-7.42,6.72-4.68-.59-9.31-1.51-13.97-2.3-10.28-1.75-20.55-3.51-30.83-5.26-.73-.13-1.47-.23-2.2-.39-7.08-1.54-9.32-3.76-9.79-11-.43-6.79-2.11-13.22-4.41-19.53-.85-2.32-2.02-4.52-3.03-6.79-3.58-8.09-10.26-11.65-18.61-13.1-5.63-.97-9.75.99-12.72,5.6-2.74,4.24-4.4,8.91-4.77,13.96-.9,12.43,2.78,23.56,10.16,33.42,5.68,7.59,12.67,13.84,20.53,19.25,5.11,3.52,10.1,7.11,15.52,10.18,4.07,2.31,7.66,5.46,11.56,8.1,3.08,2.08,6.39,3.83,9.46,5.92,15.04,10.23,29.07,21.5,39.66,36.64,5.14,7.35,10.01,14.79,13.69,22.97.71,1.58,1.56,3.12,2.1,4.76,3.85,11.79,8.44,23.34,10.24,35.73,1.78,12.29,3.04,24.56,3.01,37.02-.03,11.78-1.51,23.26-4.81,34.52ZM1570.14,792.29c-.58,3.12-1.64,6.27-3.1,9.08-5.71,10.93-14.29,18.91-25.67,23.81-.46.2-.96.3-1.38.55-8.68,5.26-18.37,5.72-28.08,5.57-6.44-.1-12.87-.86-19.31-1.26-2.71-.16-5.49-.51-8.13-.1-5.5.85-7.58,3.81-7.06,9.41.41,4.44.87,8.89,1.45,13.31.96,7.37,2.07,14.73,3,22.1.37,2.95.34,5.95.7,8.9,2.02,16.5,4.1,32.98,6.16,49.47.8,6.4,1.64,12.79,2.39,19.2.17,1.47.19,2.98,0,4.45-.28,2.39-1.93,4.1-4.32,4.47-1.45.23-2.97.2-4.45.1-6.93-.48-13.86-.96-20.78-1.55-7.17-.61-14.33-1.34-21.5-2.05-1.48-.14-2.99-.26-4.42-.63-3.66-.94-6.16-3.22-6.96-6.98-.67-3.15-1.11-6.35-1.59-9.54-1.3-8.58-2.66-17.16-3.82-25.76-1.91-14.24-3.68-28.5-5.54-42.75-1.93-14.75-3.93-29.49-5.83-44.24-1.07-8.36-2.01-16.73-2.99-25.1-.2-1.72-.33-3.46-.53-5.19-2.64-22.41-5.37-44.81-7.88-67.24-1.44-12.82-2.55-25.68-3.73-38.52-1.56-17.04-3.09-34.09-4.55-51.14-.49-5.68-.83-11.38-1.07-17.08-.22-5.22,2.31-7.92,7.51-7.97,2.21-.02,4.45.41,6.63.83,13.4,2.56,26.79,5.24,40.2,7.74,15.37,2.87,30.79,5.46,46.13,8.46,4.33.85,8.66,2.32,12.65,4.22,8.06,3.83,16.34,7.36,23.34,13.06,13.29,10.82,24.28,23.42,29.96,39.93,1.05,3.03,1.6,6.24,2.38,9.36,4.68,15.71,8.13,31.68,10.54,47.9,2.23,15.09,2.43,30.16-.37,45.17ZM1732.45,979.29c-4.69.34-9.42.25-14.13.1-3.96-.13-7.94-.48-11.87-.99-2.44-.31-4.88-.9-7.21-1.71-3.71-1.29-6.41-3.77-7.47-7.69-.78-2.87-1.47-5.76-2.13-8.66-2.1-9.18-3.25-18.58-6.55-27.47-.6-1.63-1.15-3.28-1.8-4.89-1.59-3.91-4.42-6.69-8.41-7.88-6.19-1.84-12.51-3.19-19.03-3.13-1.73.02-3.49.2-5.17.59-3.67.86-5.56,2.99-5.6,6.86-.06,5.45.2,10.91.44,16.36.29,6.94.69,13.86,1.03,20.79.05.99.08,1.99,0,2.98-.38,4.43-2.51,6.76-6.99,7.25-2.2.24-4.47.14-6.68-.07-5.93-.55-11.84-1.26-17.76-1.89-4.95-.53-9.82-1.28-14.3-3.74-3.35-1.84-5.33-4.34-5.3-8.25.01-2.48.01-4.96-.03-7.44-.18-11.91-.47-23.81-.53-35.72-.04-8.67.3-17.34.36-26.01.04-7.18-.07-14.37-.13-21.56-.1-11.91-.23-23.82-.3-35.73-.06-9.18-.05-18.35-.07-27.53,0-.25-.03-.5,0-.74,1.28-13.59.79-27.22.94-40.83.12-10.64-.28-21.28.78-31.95.93-9.34.36-18.83.52-28.24.03-1.97.33-3.94.45-5.92.26-4.19.51-8.38.73-12.58.16-2.96.25-5.93.42-8.89.18-3.21.49-6.41.59-9.61.14-4.34,1.85-6.53,6.07-6.92,2.19-.2,4.48,0,6.66.38,11.47,2.02,22.96,3.81,34.1,7.56,8.02,2.7,13.41,7.21,15.22,15.61.26,1.21.76,2.36,1.14,3.54.08-.02.15-.03.23-.05,1.05,4.59,2.1,9.17,3.15,13.76.39,1.69.7,3.41,1.22,5.06,2.68,8.52,4.92,17.14,7.06,25.82,3.62,14.66,8.18,29.1,12.3,43.65,1.01,3.57,1.82,7.2,2.72,10.81.72,2.88,1.35,5.8,2.17,8.65,4.51,15.72,9.5,31.32,13.43,47.17,2.27,9.16,5.01,18.16,7.44,27.25,2.69,10.05,4.82,20.24,7.31,30.34,2.31,9.39,5.12,18.66,7.12,28.11,2.62,12.4,6.68,24.38,10.07,36.56.53,1.91,1.16,3.78,1.8,5.66.4,1.17.99,2.29,1.29,3.48,1.15,4.55-.64,7.41-5.31,7.74ZM1924.25,883.98c-.74,11.92-3.39,23.49-8.52,34.51-2.31,4.96-4.73,9.79-7.59,14.43-3.29,5.34-7.88,9.54-12.1,14.06-.5.54-1.16.94-1.78,1.35-11.74,7.74-24.48,13.13-38.24,16.05-4.61.98-9.35,1.39-13.94,2.43-10.58,2.41-21.26,1.45-31.91,1.11-5.36-.17-9.99-3.03-14.62-5.27-5.33-2.57-10.27-5.96-14.53-10.26-3.89-3.93-6.82-8.32-9.27-13.32-3.96-8.08-6.64-16.57-10.41-28.01-2.74-7.33-5.6-17.83-6.87-28.75-.31-2.69-1.33-5.28-1.95-7.94-1.52-6.52-3.95-13-4.24-19.57-.37-8.74-2.74-17.09-3.36-25.76-.56-7.86-2.7-15.6-3.69-23.45-.99-7.86-1.58-15.78-2.08-23.69-.65-10.36-.93-20.75-1.56-31.12-.65-10.67-.66-21.3,1.02-31.9.47-2.94.79-5.9,1.15-8.86,1.45-12.36,6.46-23.52,12.92-33.82,4.84-7.74,11.56-14.2,19.07-19.66,10.74-7.81,22.57-13.47,35.26-17.16,7.59-2.21,15.3-3.9,23.42-3.6,20.54.77,36.7,9.3,48.57,26.06,6.08,8.6,10.09,18.01,12.96,28.18,2.7,9.56,4.77,19.25,7.36,28.82.45,1.67.84,3.4.9,5.11.18,5.25-2.35,8.97-7.28,10.93-1.15.46-2.34.92-3.55,1.1-12.61,1.94-24.36,6.84-36.47,10.49-2.14.64-4.26,1.48-6.45,1.78-2.43.32-4.98.46-7.38.08-4.34-.7-6.69-3.11-6.84-7.54-.18-5.53-1.82-10.73-2.7-16.1-1.23-7.5-4.76-14.09-7.56-20.92-3.16-7.74-12.14-10.27-19.45-6.24-1.28.71-2.64,1.58-3.48,2.73-3.68,5.04-7.12,10.31-7.2,16.82-.08,6.69.16,13.38.4,20.07.15,3.96.51,7.92.91,11.88.56,5.67,1.21,11.33,1.89,16.98.67,5.66,1.31,11.32,2.17,16.96.64,4.16,1.75,8.25,2.41,12.41,1.28,8.09,2.29,16.21,3.56,24.29,1.7,10.78,3.37,21.56,5.35,32.29,1.8,9.75,3.81,19.47,6.06,29.13,1.41,6.03,3.17,12,6.39,17.41,3.05,5.11,7.25,8.76,12.99,10.51,7.14,2.18,13.31-.11,17.35-6.45,3.47-5.44,4.47-11.48,4.46-17.8-.02-15.91-1.86-31.67-4.25-47.35-.91-6.03.47-9.59,6.82-12.35,4.74-2.06,9.87-3.26,14.87-4.68,2.86-.81,5.93-.97,8.7-1.99,8.2-3.04,16.84-4.24,25.24-6.39,5.58-1.43,8.27.2,10.36,5.63.44,1.16.79,2.35,1.09,3.56,5.07,20.64,6.94,41.62,5.62,62.78ZM2159.66,903.47c-1.18.39-2.38.74-3.6.94-13.23,2.15-26.48,4.17-39.69,6.42-9.3,1.58-18.55,3.43-27.82,5.18-9.27,1.76-18.54,3.53-27.8,5.31-19.5,3.76-39,7.54-58.5,11.28-7.31,1.4-14.64,2.71-21.98,4.02-1.22.22-2.47.33-3.7.31-6.43-.1-8.94-2.12-10.13-8.56-1.93-10.49-3.4-21.07-5.61-31.5-2.36-11.16-2.9-22.63-6.25-33.61-.93-3.06-1.32-6.33-1.58-9.54-1.08-13.15-4.69-25.86-6.57-38.87-.39-2.7-.72-5.41-1.08-8.11-.3-2.21-.27-4.53-.94-6.62-3.26-10.24-4.04-20.94-5.96-31.42-3.54-19.27-6.8-38.59-10.22-57.89-2.04-11.48-4.25-22.92-6.22-34.41-1.88-10.98-3.44-22.02-5.37-32.99-1.54-8.79-3.43-17.52-5.16-26.29-.19-.97-.36-1.95-.55-2.92-.57-3.04.52-5.51,3.06-7.03,2.53-1.52,5.27-2.76,8.01-3.88,25.54-10.44,51.99-18.28,78.08-27.15,3.75-1.27,7.32-3.06,11.04-4.43,6.06-2.23,12.15-4.37,18.25-6.46,4.47-1.53,8.97-2.94,13.46-4.4.03.09.07.19.1.28,11.2-4.07,22.39-8.16,33.6-12.2,1.86-.67,3.79-1.24,5.73-1.65,4.14-.85,7.38,1.07,8.47,5.25,1.01,3.83,1.59,7.78,2.46,11.65.98,4.36,2.02,8.7,3.12,13.01,2.32,9.13,4.69,18.25,7.05,27.37.12.48.2.97.28,1.46,1.01,6.72-.74,9.76-7.21,11.8-6.38,2-12.88,3.6-19.26,5.62-16.11,5.1-32.14,10.41-48.26,15.49-4.95,1.56-10.04,2.74-15.11,3.94-3.91.92-7.68,2-10.79,4.73-3.25,2.84-4.8,6.28-3.94,10.6,1.08,5.35,2.27,10.68,3.31,16.03.66,3.4,1.12,6.83,1.66,10.25.81,5.15,1.4,10.33,2.45,15.42.87,4.22,2.93,5.82,7.3,6.1,6.27.4,12.5-.6,18.37-2.5,15.83-5.14,31.92-9.32,47.91-13.88,5.73-1.63,11.34-3.7,17.06-5.36,2.6-.76,5.33-1.32,8.03-1.45,4.46-.22,6.83,2.02,7.58,6.45,1.29,7.57,2.45,15.17,3.99,22.69,1.99,9.72,4.14,19.41,6.55,29.03,2.22,8.88.57,10.64-7.35,12.59-15.9,3.93-31.74,8.07-47.78,11.43-.97.21-1.98.33-2.9.69-8.82,3.47-18.1,5.12-27.29,7.18-3.61.81-7.21,1.96-10.58,3.49-3.88,1.76-4.91,4.27-4.47,8.46,1.55,14.83,4.57,29.39,7.81,43.91.7,3.15,1.03,6.38,1.8,9.5,1.54,6.24,4.19,8.23,10.58,8.18,1.23-.01,2.48-.15,3.69-.4,5.1-1.08,10.21-2.08,15.26-3.36,16.85-4.26,33.82-7.96,50.97-10.83,2.92-.49,5.76-1.53,8.66-2.2,6.52-1.52,13.05-3.01,19.6-4.42,1.44-.31,2.97-.33,4.44-.27,2.71.09,4.83,1.36,5.83,3.9,1,2.53,1.93,5.13,2.48,7.78,3.15,15.06,6.16,30.14,9.23,45.21.84,4.13,1.95,8.22,2.49,12.39.74,5.77-.51,7.43-6.1,9.29Z"/>
      <path class="cls-1" d="M1085,213.81L479.47,0,84.32,168.56,0,853.93l433.41-92.76,684.94,92.76-33.35-640.13ZM387.15,309.86c-.28.75-.77,1.48-.82,2.25-.74,11.28-1.43,22.57-2.13,33.86-.12,1.94-.21,3.88-.36,5.81-.51,6.44-1.14,12.87-1.56,19.32-.49,7.58-.76,15.17-1.23,22.76-.27,4.35-.73,8.69-1.14,13.04-.86,9.17-1.78,18.33-2.62,27.5-.65,7.07-1.02,14.17-1.92,21.2-1.56,12.17-3.44,24.3-5.16,36.44-1,7.02-1.51,14.14-3.02,21.05-2.29,10.5-5.44,20.82-7.91,31.29-3.82,16.21-8.64,32.15-14.23,47.83-3.4,9.54-7.93,18.73-12.34,27.9-6.13,12.76-13.53,24.77-21.86,36.34-10.92,15.17-24.17,27.79-39.61,38.43-10.34,7.13-21.36,13.02-32.86,18.17-23.96,10.73-48.71,17.78-75.43,16.67-8.77-.37-16.47-3.19-23.18-8.63-7.81-6.33-13.2-14.47-17.72-23.19-3-5.78-5.14-11.82-6.44-18.25-1.63-8.1-3.48-16.11-3.99-24.39-.65-10.63-2.09-21.23-2.45-31.86-.29-8.53.58-17.1.83-25.66.39-13.57.62-27.15,1.07-40.72.21-6.3.66-12.59,1.19-18.87.86-10.3,1.85-20.59,2.82-30.88.56-5.94,1.12-11.89,1.84-17.81.58-4.78,1.5-9.52,2.08-14.29,1.19-9.79,2-19.62,3.42-29.37,1.95-13.43,4.17-26.84,6.55-40.2,3.85-21.62,7.99-43.2,13.51-64.48,4.78-18.41,10.04-36.7,16.98-54.48,2.22-5.7,3.95-11.64,6.81-17.02,5.63-10.61,11.75-20.99,17.93-31.31,12.65-21.12,29.82-38.31,49.58-53.12,6.3-4.72,12.52-9.79,19.5-13.36,15.26-7.8,30.52-15.61,46.83-21.41,12.5-4.44,25.01-4.15,37.78-3.37,1.32.08,2.71.11,3.92.55,12.06,4.4,22.27,11.59,28.17,22.68,4.77,8.95,7.98,18.84,10.76,28.61,2.37,8.36,3.16,17.15,4.61,25.75.64,3.79,1.19,7.6,1.78,11.41v73.84ZM778.13,307.46c-4.66,3.42-9.52,1.98-14.28.43-21.92-7.12-43.87-14.15-65.7-21.53-23.4-7.92-46.63-16.3-70.01-24.27-7.56-2.58-9.17-1.25-9.42,6.59-.69,21.35-1.4,42.69-2,64.04-.4,14.11.95,16.18,14.54,20.43,33.71,10.55,67.49,20.9,101.23,31.36,10.14,3.14,20.26,6.32,30.35,9.59,4.8,1.55,6.72,4.88,5.99,9.87-.42,2.89-.49,5.86-.41,8.79.59,23.8,1.38,47.59,1.85,71.39.27,13.99-1.82,15.52-15.62,11.91-20.87-5.46-41.69-11.09-62.51-16.69-22.59-6.08-45.14-12.29-67.75-18.28-5.94-1.57-7.42-.35-8.32,5.57-.17,1.13-.23,2.27-.26,3.41-.69,26.57-1.42,53.13-2.03,79.7-.72,31.3-1.41,62.6-1.97,93.9-.22,11.91-.03,23.82-.08,35.73-.03,8.08-2.38,10.2-10.67,9.21-5.59-.67-11.14-1.75-16.69-2.73-30.54-5.41-61.06-10.94-91.63-16.23-9.31-1.61-18.75-2.5-28.12-3.85-6.42-.92-7.91-2.58-8.22-8.92-.14-2.77-.08-5.55.02-8.32.51-14.82,1.13-29.65,1.59-44.47.52-16.62.77-33.26,1.39-49.88.72-19.38,1.87-38.74,2.55-58.12.64-18.41.71-36.85,1.4-55.26,1.41-37.46,3.09-74.92,4.63-112.37.8-19.38,1.5-38.77,2.3-58.16,1.2-29.15,2.44-58.3,3.68-87.45.73-17.1,1.42-34.21,2.3-51.3.35-6.66,1.19-13.29,1.81-19.93h12.96c2.74.62,5.47,1.34,8.24,1.84,21.53,3.94,43.21,7.27,63.75,15.21,19.15,7.4,38.27,14.9,57.49,22.15,28.97,10.93,57.96,21.82,87.04,32.48,23.47,8.61,47.07,16.85,70.61,25.26v98.89ZM1027.55,562.01c-2.2.25-4.61-.25-6.77-.89-27.61-8.22-55.19-16.53-82.79-24.81-2.54-.76-5.08-1.56-7.68-2.03-3.44-.62-5.03.57-5.39,3.97-.24,2.26-.24,4.56-.17,6.84.34,10.91.65,21.83,1.13,32.74.51,11.72,1.26,23.42,1.79,35.13.72,16.11,1.4,32.23,1.96,48.34.49,14.01.76,28.03,1.18,42.04.08,2.76.41,5.52.59,8.28.44,6.83.99,13.65,1.22,20.49.14,4.34-1.57,6.3-5.83,7.19-1.58.33-3.33.34-4.92.06-9.45-1.67-18.86-3.58-28.32-5.19-20.55-3.5-40.83-8.56-61.69-10.33-4.31-.36-5.95-2.09-6.22-6.22-.44-6.67-.81-13.34-1.02-20.01-.44-13.52-.66-27.05-1.14-40.56-.49-13.84-1.27-27.67-1.76-41.51-.75-21.01-1.39-42.02-2-63.03-.43-14.66-.74-29.33-1.09-43.99-.06-2.61.01-5.22-.1-7.83-.58-13.83-1.31-27.66-1.79-41.5-.46-13.03-.68-26.07-1-39.11-.35-14.01-.68-28.03-1.06-42.04-.26-9.61-.63-19.22-.92-28.83-.36-12.05-.75-24.11-1.01-36.17-.39-17.93-.66-35.86-1.08-53.79-.04-1.7.07-3.39-.34-5.08v-40.62c3.65,0,147.7,55.71,175.32,66.02,10.69,3.99,21.16,8.54,31.8,12.69,5.11,1.99,8.26,5.22,8.46,10.82.07,2.11.34,4.22.4,6.34.41,13.36.66,26.72,1.21,40.07.34,8.3,1.18,16.57,1.64,24.87.2,3.74.19,7.51-.05,11.24-.21,3.2-2.24,4.52-5.36,3.82-2.24-.51-4.52-1.03-6.65-1.85-26.23-10.13-52.44-20.32-78.66-30.49-5.7-2.21-11.36-4.56-17.14-6.56-2.95-1.02-4.39-.06-5.06,2.9-.36,1.56-.36,3.24-.3,4.86.58,13.83,1.21,27.67,1.82,41.5.35,7.97.83,15.95.99,23.93.12,5.84,2.97,9.46,8.38,11.41,4.51,1.63,9,3.34,13.53,4.92,26.25,9.18,52.51,18.32,78.76,27.51,5.73,2.01,7.83,5.02,7.9,10.83.04,3.1.1,6.2.27,9.29.55,9.76,1.13,19.51,1.77,29.26.44,6.66,1.03,13.32,1.53,19.98.47,6.17,1.06,12.34,1.31,18.52.17,4.15-1.44,6.07-5.64,6.55Z"/>
    </g>
  </g>
</svg>