<svg xmlns="http://www.w3.org/2000/svg" xmlns:xlink="http://www.w3.org/1999/xlink" width="212" zoomAndPan="magnify" viewBox="0 0 159 159.000002" height="212" preserveAspectRatio="xMidYMid meet" version="1.0"><defs><clipPath id="a630a8db5c"><path d="M 0.496094 0 L 158.503906 0 L 158.503906 158.007812 L 0.496094 158.007812 Z M 0.496094 0 " clip-rule="nonzero"/></clipPath><clipPath id="39547cfe69"><rect x="0" width="159" y="0" height="159"/></clipPath></defs><g clip-path="url(#a630a8db5c)"><g transform="matrix(1, 0, 0, 1, 0.000000000000000111, -0.000000000000012032)"><g clip-path="url(#39547cfe69)"><path fill="#1d1d1b" d="M 94.710938 108.796875 L 85.066406 109.375 L 85.597656 112.621094 L 94.964844 110.136719 C 94.855469 109.695312 94.773438 109.246094 94.710938 108.796875 Z M 94.710938 108.796875 " fill-opacity="1" fill-rule="nonzero"/><path fill="#1d1d1b" d="M 95.828125 112.769531 L 86.785156 116.148438 L 88.226562 119.109375 L 96.457031 113.992188 C 96.226562 113.589844 96.015625 113.183594 95.828125 112.769531 Z M 95.828125 112.769531 " fill-opacity="1" fill-rule="nonzero"/><path fill="#1d1d1b" d="M 98.0625 116.246094 L 90.398438 122.128906 L 92.648438 124.519531 L 99.015625 117.226562 C 98.683594 116.910156 98.363281 116.582031 98.0625 116.246094 Z M 98.0625 116.246094 " fill-opacity="1" fill-rule="nonzero"/><path fill="#1d1d1b" d="M 101.214844 118.90625 L 95.609375 126.777344 L 98.449219 128.421875 L 102.417969 119.566406 C 102.003906 119.367188 101.601562 119.148438 101.214844 118.90625 Z M 101.214844 118.90625 " fill-opacity="1" fill-rule="nonzero"/><path fill="#1d1d1b" d="M 101.9375 129.710938 L 105.132812 130.4375 L 106.339844 120.824219 C 105.886719 120.75 105.441406 120.648438 105.011719 120.542969 Z M 101.9375 129.710938 " fill-opacity="1" fill-rule="nonzero"/><path fill="#1d1d1b" d="M 109.105469 120.984375 L 108.839844 130.648438 L 112.113281 130.40625 L 110.472656 120.859375 C 110.011719 120.925781 109.558594 120.96875 109.105469 120.984375 Z M 109.105469 120.984375 " fill-opacity="1" fill-rule="nonzero"/><path fill="#1d1d1b" d="M 113.152344 120.199219 L 115.726562 129.523438 L 118.78125 128.339844 L 114.417969 119.683594 C 114.007812 119.875 113.582031 120.046875 113.152344 120.199219 Z M 113.152344 120.199219 " fill-opacity="1" fill-rule="nonzero"/><path fill="#1d1d1b" d="M 116.796875 118.261719 L 121.972656 126.429688 L 124.550781 124.394531 L 117.859375 117.394531 C 117.523438 117.707031 117.167969 117.992188 116.796875 118.261719 Z M 116.796875 118.261719 " fill-opacity="1" fill-rule="nonzero"/><path fill="#1d1d1b" d="M 119.714844 115.339844 L 127.046875 121.636719 L 128.921875 118.941406 L 120.476562 114.207031 C 120.242188 114.597656 119.988281 114.976562 119.714844 115.339844 Z M 119.714844 115.339844 " fill-opacity="1" fill-rule="nonzero"/><path fill="#1d1d1b" d="M 121.660156 111.699219 L 130.507812 115.570312 L 131.515625 112.4375 L 122.050781 110.386719 C 121.945312 110.835938 121.808594 111.269531 121.660156 111.699219 Z M 121.660156 111.699219 " fill-opacity="1" fill-rule="nonzero"/><path fill="#1d1d1b" d="M 122.4375 106.277344 C 122.460938 106.730469 122.460938 107.1875 122.4375 107.640625 L 132.046875 108.738281 L 132.09375 105.457031 Z M 122.4375 106.277344 " fill-opacity="1" fill-rule="nonzero"/><path fill="#1d1d1b" d="M 122.019531 103.535156 L 131.527344 101.777344 L 130.621094 98.617188 L 121.621094 102.230469 C 121.773438 102.660156 121.90625 103.09375 122.019531 103.535156 Z M 122.019531 103.535156 " fill-opacity="1" fill-rule="nonzero"/><path fill="#1d1d1b" d="M 120.417969 99.726562 L 129 95.261719 L 127.191406 92.519531 L 119.640625 98.613281 C 119.921875 98.964844 120.183594 99.335938 120.417969 99.726562 Z M 120.417969 99.726562 " fill-opacity="1" fill-rule="nonzero"/><path fill="#1d1d1b" d="M 117.773438 96.566406 L 124.675781 89.769531 L 122.15625 87.660156 L 116.714844 95.710938 C 117.082031 95.976562 117.4375 96.261719 117.773438 96.566406 Z M 117.773438 96.566406 " fill-opacity="1" fill-rule="nonzero"/><path fill="#1d1d1b" d="M 118.964844 85.785156 L 115.941406 84.511719 L 113.074219 93.816406 C 113.503906 93.960938 113.925781 94.128906 114.332031 94.328125 Z M 118.964844 85.785156 " fill-opacity="1" fill-rule="nonzero"/><path fill="#1d1d1b" d="M 112.328125 83.65625 L 109.070312 83.316406 L 109.019531 93.054688 C 109.472656 93.070312 109.925781 93.109375 110.375 93.171875 Z M 112.328125 83.65625 " fill-opacity="1" fill-rule="nonzero"/><path fill="#1d1d1b" d="M 47.21875 40.503906 L 42.460938 40.503906 L 42.460938 54.328125 L 38.542969 54.328125 L 38.542969 40.503906 L 33.765625 40.503906 L 33.765625 37.386719 L 47.210938 37.386719 Z M 47.21875 40.503906 " fill-opacity="1" fill-rule="nonzero"/><path fill="#1d1d1b" d="M 64.316406 54.328125 L 60.761719 54.328125 C 60.476562 54.347656 60.203125 54.292969 59.949219 54.160156 C 59.691406 54.023438 59.492188 53.832031 59.347656 53.582031 L 56.535156 48.652344 C 56.425781 48.445312 56.269531 48.285156 56.0625 48.175781 C 55.855469 48.066406 55.632812 48.023438 55.402344 48.050781 L 54.402344 48.050781 L 54.402344 54.316406 L 50.488281 54.316406 L 50.488281 37.386719 L 55.992188 37.386719 C 57.046875 37.363281 58.085938 37.484375 59.109375 37.753906 C 59.890625 37.960938 60.597656 38.316406 61.230469 38.816406 C 61.765625 39.246094 62.164062 39.777344 62.421875 40.410156 C 62.871094 41.582031 62.921875 42.765625 62.574219 43.96875 C 62.429688 44.457031 62.210938 44.90625 61.921875 45.324219 C 61.625 45.75 61.273438 46.121094 60.859375 46.4375 C 60.414062 46.773438 59.929688 47.039062 59.402344 47.234375 C 59.664062 47.367188 59.902344 47.53125 60.121094 47.726562 C 60.355469 47.933594 60.558594 48.167969 60.726562 48.429688 Z M 55.980469 45.351562 C 56.445312 45.363281 56.902344 45.292969 57.34375 45.148438 C 57.695312 45.03125 58.003906 44.839844 58.265625 44.582031 C 58.511719 44.34375 58.6875 44.0625 58.796875 43.742188 C 58.910156 43.402344 58.964844 43.054688 58.960938 42.699219 C 58.996094 42.003906 58.753906 41.421875 58.234375 40.957031 C 57.75 40.539062 57 40.328125 55.988281 40.328125 L 54.410156 40.328125 L 54.410156 45.351562 Z M 55.980469 45.351562 " fill-opacity="1" fill-rule="nonzero"/><path fill="#1d1d1b" d="M 70.96875 40.410156 L 70.96875 44.363281 L 76.277344 44.363281 L 76.277344 47.269531 L 70.96875 47.269531 L 70.96875 51.3125 L 77.910156 51.3125 L 77.910156 54.335938 L 67.027344 54.335938 L 67.027344 37.386719 L 77.910156 37.386719 L 77.910156 40.410156 Z M 70.96875 40.410156 " fill-opacity="1" fill-rule="nonzero"/><path fill="#1d1d1b" d="M 96.992188 37.386719 L 96.992188 54.328125 L 94.949219 54.328125 C 94.683594 54.335938 94.429688 54.289062 94.1875 54.183594 C 93.949219 54.058594 93.746094 53.890625 93.578125 53.679688 L 85.601562 43.574219 C 85.632812 43.875 85.65625 44.171875 85.667969 44.453125 C 85.675781 44.734375 85.683594 45.003906 85.683594 45.25 L 85.683594 54.328125 L 82.234375 54.328125 L 82.234375 37.386719 L 84.300781 37.386719 C 84.441406 37.382812 84.585938 37.390625 84.730469 37.410156 C 84.839844 37.421875 84.941406 37.453125 85.042969 37.496094 C 85.140625 37.542969 85.230469 37.601562 85.308594 37.675781 C 85.410156 37.773438 85.507812 37.878906 85.597656 37.992188 L 93.640625 48.164062 C 93.601562 47.839844 93.574219 47.523438 93.558594 47.21875 C 93.542969 46.910156 93.535156 46.621094 93.535156 46.351562 L 93.535156 37.386719 Z M 96.992188 37.386719 " fill-opacity="1" fill-rule="nonzero"/><path fill="#1d1d1b" d="M 117.222656 45.851562 C 117.234375 47.023438 117.023438 48.152344 116.589844 49.242188 C 116.183594 50.261719 115.589844 51.15625 114.808594 51.925781 C 114.007812 52.710938 113.085938 53.304688 112.039062 53.703125 C 110.882812 54.144531 109.6875 54.355469 108.449219 54.335938 L 101.878906 54.335938 L 101.878906 37.386719 L 108.449219 37.386719 C 109.6875 37.367188 110.882812 37.578125 112.039062 38.019531 C 113.082031 38.417969 114.007812 39.007812 114.808594 39.785156 C 115.589844 40.554688 116.183594 41.449219 116.589844 42.46875 C 117.023438 43.554688 117.238281 44.679688 117.222656 45.851562 Z M 113.207031 45.851562 C 113.21875 45.078125 113.109375 44.320312 112.882812 43.582031 C 112.6875 42.949219 112.375 42.375 111.949219 41.867188 C 111.535156 41.394531 111.035156 41.03125 110.457031 40.785156 C 109.8125 40.523438 109.144531 40.398438 108.449219 40.410156 L 105.824219 40.410156 L 105.824219 51.308594 L 108.449219 51.308594 C 109.144531 51.320312 109.8125 51.195312 110.457031 50.933594 C 111.039062 50.6875 111.535156 50.328125 111.949219 49.851562 C 112.375 49.34375 112.6875 48.769531 112.882812 48.136719 C 113.109375 47.390625 113.21875 46.628906 113.207031 45.851562 Z M 113.207031 45.851562 " fill-opacity="1" fill-rule="nonzero"/><path fill="#1d1d1b" d="M 44.746094 63.476562 C 44.648438 63.640625 44.527344 63.777344 44.378906 63.894531 C 44.230469 63.996094 44.066406 64.042969 43.882812 64.035156 C 43.679688 64.027344 43.488281 63.972656 43.3125 63.867188 L 42.613281 63.488281 C 42.328125 63.335938 42.035156 63.210938 41.726562 63.113281 C 41.355469 62.992188 40.976562 62.9375 40.589844 62.945312 C 39.851562 62.945312 39.304688 63.097656 38.945312 63.414062 C 38.566406 63.753906 38.390625 64.175781 38.414062 64.683594 C 38.40625 65.015625 38.511719 65.296875 38.738281 65.535156 C 38.988281 65.78125 39.273438 65.976562 39.59375 66.117188 C 39.984375 66.296875 40.386719 66.445312 40.800781 66.566406 C 41.25 66.699219 41.714844 66.851562 42.1875 67.015625 C 42.660156 67.1875 43.121094 67.382812 43.574219 67.605469 C 44.023438 67.824219 44.425781 68.113281 44.78125 68.464844 C 45.148438 68.835938 45.433594 69.257812 45.632812 69.738281 C 45.867188 70.320312 45.976562 70.921875 45.960938 71.546875 C 45.964844 72.304688 45.832031 73.039062 45.554688 73.742188 C 45.289062 74.421875 44.894531 75.019531 44.375 75.53125 C 43.824219 76.0625 43.1875 76.460938 42.46875 76.726562 C 41.640625 77.03125 40.785156 77.179688 39.902344 77.164062 C 39.359375 77.160156 38.824219 77.105469 38.292969 77 C 37.746094 76.894531 37.21875 76.742188 36.699219 76.539062 C 36.199219 76.347656 35.71875 76.113281 35.261719 75.839844 C 34.832031 75.582031 34.441406 75.28125 34.089844 74.929688 L 35.246094 73.09375 C 35.347656 72.957031 35.46875 72.84375 35.613281 72.761719 C 35.765625 72.671875 35.929688 72.628906 36.109375 72.628906 C 36.363281 72.632812 36.597656 72.707031 36.808594 72.851562 L 37.605469 73.335938 C 37.933594 73.53125 38.277344 73.695312 38.632812 73.824219 C 39.078125 73.984375 39.535156 74.054688 40.003906 74.046875 C 40.613281 74.082031 41.164062 73.925781 41.664062 73.574219 C 42.0625 73.265625 42.261719 72.769531 42.261719 72.082031 C 42.277344 71.71875 42.167969 71.398438 41.9375 71.117188 C 41.695312 70.851562 41.410156 70.644531 41.082031 70.5 C 40.691406 70.324219 40.292969 70.179688 39.882812 70.070312 C 39.429688 69.945312 38.972656 69.804688 38.5 69.65625 C 38.023438 69.507812 37.566406 69.320312 37.121094 69.097656 C 36.667969 68.878906 36.265625 68.585938 35.917969 68.226562 C 35.542969 67.835938 35.257812 67.386719 35.0625 66.878906 C 34.828125 66.234375 34.71875 65.570312 34.738281 64.882812 C 34.742188 64.226562 34.875 63.597656 35.136719 62.992188 C 35.398438 62.390625 35.769531 61.863281 36.25 61.414062 C 36.78125 60.917969 37.386719 60.539062 38.070312 60.28125 C 38.867188 59.984375 39.691406 59.839844 40.542969 59.855469 C 41.050781 59.855469 41.554688 59.898438 42.054688 59.980469 C 42.535156 60.058594 43 60.179688 43.457031 60.339844 C 43.886719 60.492188 44.296875 60.683594 44.691406 60.910156 C 45.0625 61.121094 45.40625 61.371094 45.71875 61.660156 Z M 44.746094 63.476562 " fill-opacity="1" fill-rule="nonzero"/><path fill="#1d1d1b" d="M 56.457031 60.035156 C 57.503906 60.011719 58.527344 60.15625 59.527344 60.457031 C 60.316406 60.703125 61.023438 61.089844 61.652344 61.628906 C 62.199219 62.113281 62.609375 62.699219 62.875 63.382812 C 63.144531 64.085938 63.277344 64.816406 63.269531 65.570312 C 63.28125 66.371094 63.144531 67.148438 62.863281 67.898438 C 62.59375 68.601562 62.179688 69.203125 61.621094 69.710938 C 60.996094 70.253906 60.289062 70.648438 59.5 70.890625 C 58.511719 71.191406 57.5 71.332031 56.464844 71.3125 L 54.421875 71.3125 L 54.421875 76.976562 L 50.488281 76.976562 L 50.488281 60.035156 Z M 56.457031 68.347656 C 57.476562 68.347656 58.210938 68.105469 58.660156 67.617188 C 59.113281 67.128906 59.335938 66.445312 59.335938 65.570312 C 59.339844 65.207031 59.28125 64.851562 59.160156 64.507812 C 59.046875 64.191406 58.871094 63.921875 58.632812 63.6875 C 58.371094 63.445312 58.074219 63.265625 57.738281 63.15625 C 57.320312 63.027344 56.890625 62.964844 56.453125 62.972656 L 54.410156 62.972656 L 54.410156 68.34375 Z M 56.457031 68.347656 " fill-opacity="1" fill-rule="nonzero"/><path fill="#1d1d1b" d="M 84.417969 68.5 C 84.429688 69.679688 84.21875 70.820312 83.789062 71.917969 C 83.378906 72.964844 82.78125 73.886719 81.988281 74.683594 C 81.199219 75.480469 80.28125 76.085938 79.238281 76.5 C 78.078125 76.941406 76.882812 77.164062 75.640625 77.164062 C 74.402344 77.164062 73.203125 76.941406 72.046875 76.5 C 71 76.089844 70.078125 75.484375 69.28125 74.6875 C 68.488281 73.890625 67.886719 72.96875 67.476562 71.917969 C 67.054688 70.820312 66.84375 69.679688 66.84375 68.5 C 66.84375 67.320312 67.054688 66.183594 67.476562 65.082031 C 67.882812 64.042969 68.480469 63.128906 69.265625 62.335938 C 70.066406 61.539062 70.992188 60.929688 72.042969 60.511719 C 73.199219 60.054688 74.398438 59.832031 75.640625 59.847656 C 76.882812 59.832031 78.082031 60.054688 79.234375 60.519531 C 80.28125 60.941406 81.203125 61.550781 82 62.347656 C 82.78125 63.140625 83.375 64.058594 83.785156 65.09375 C 84.21875 66.1875 84.429688 67.324219 84.417969 68.5 Z M 80.402344 68.5 C 80.414062 67.730469 80.304688 66.976562 80.078125 66.238281 C 79.886719 65.605469 79.574219 65.035156 79.140625 64.535156 C 78.726562 64.0625 78.230469 63.710938 77.652344 63.46875 C 77.007812 63.210938 76.339844 63.085938 75.644531 63.097656 C 74.945312 63.085938 74.269531 63.210938 73.621094 63.46875 C 73.039062 63.707031 72.539062 64.0625 72.121094 64.535156 C 71.691406 65.035156 71.378906 65.605469 71.1875 66.238281 C 70.742188 67.75 70.742188 69.261719 71.1875 70.773438 C 71.378906 71.40625 71.691406 71.976562 72.121094 72.476562 C 72.535156 72.953125 73.035156 73.304688 73.621094 73.542969 C 74.269531 73.796875 74.945312 73.921875 75.644531 73.90625 C 76.335938 73.921875 77.007812 73.796875 77.652344 73.542969 C 78.230469 73.304688 78.730469 72.949219 79.140625 72.476562 C 79.574219 71.976562 79.886719 71.40625 80.078125 70.773438 C 80.304688 70.03125 80.414062 69.273438 80.402344 68.5 Z M 80.402344 68.5 " fill-opacity="1" fill-rule="nonzero"/><path fill="#1d1d1b" d="M 103.128906 76.976562 L 99.589844 76.976562 C 99.300781 77 99.03125 76.941406 98.773438 76.808594 C 98.519531 76.671875 98.316406 76.480469 98.171875 76.230469 L 95.34375 71.3125 C 95.234375 71.125 95.085938 70.972656 94.902344 70.855469 C 94.683594 70.742188 94.449219 70.695312 94.203125 70.710938 L 93.21875 70.710938 L 93.21875 76.976562 L 89.292969 76.976562 L 89.292969 60.035156 L 94.796875 60.035156 C 95.859375 60.011719 96.902344 60.140625 97.925781 60.414062 C 98.707031 60.621094 99.414062 60.976562 100.050781 61.476562 C 100.582031 61.90625 100.980469 62.4375 101.238281 63.070312 C 101.492188 63.714844 101.617188 64.382812 101.609375 65.074219 C 101.613281 65.605469 101.539062 66.121094 101.390625 66.632812 C 101.242188 67.117188 101.027344 67.566406 100.738281 67.984375 C 100.445312 68.410156 100.089844 68.78125 99.675781 69.09375 C 99.230469 69.429688 98.746094 69.695312 98.21875 69.890625 C 98.480469 70.023438 98.71875 70.1875 98.941406 70.382812 C 99.171875 70.589844 99.375 70.824219 99.546875 71.085938 Z M 94.796875 68 C 95.261719 68.011719 95.71875 67.941406 96.160156 67.796875 C 96.511719 67.675781 96.820312 67.488281 97.085938 67.230469 C 97.328125 66.992188 97.503906 66.710938 97.617188 66.390625 C 97.726562 66.050781 97.78125 65.703125 97.777344 65.347656 C 97.8125 64.648438 97.570312 64.070312 97.050781 63.605469 C 96.566406 63.1875 95.820312 62.976562 94.804688 62.976562 L 93.21875 62.976562 L 93.21875 68 Z M 94.796875 68 " fill-opacity="1" fill-rule="nonzero"/><path fill="#1d1d1b" d="M 117.597656 63.152344 L 112.835938 63.152344 L 112.835938 76.976562 L 108.910156 76.976562 L 108.910156 63.152344 L 104.152344 63.152344 L 104.152344 60.035156 L 117.597656 60.035156 Z M 117.597656 63.152344 " fill-opacity="1" fill-rule="nonzero"/><path fill="#1d1d1b" d="M 49.574219 99.222656 L 46.019531 99.222656 C 45.734375 99.242188 45.460938 99.1875 45.207031 99.054688 C 44.949219 98.917969 44.75 98.726562 44.605469 98.476562 L 41.796875 93.558594 C 41.6875 93.347656 41.527344 93.191406 41.320312 93.078125 C 41.113281 92.96875 40.890625 92.925781 40.65625 92.953125 L 39.660156 92.953125 L 39.660156 99.222656 L 35.738281 99.222656 L 35.738281 82.28125 L 41.238281 82.28125 C 42.300781 82.257812 43.34375 82.382812 44.367188 82.65625 C 45.148438 82.867188 45.855469 83.21875 46.492188 83.722656 C 47.023438 84.148438 47.421875 84.683594 47.679688 85.316406 C 47.933594 85.957031 48.058594 86.625 48.050781 87.316406 C 48.054688 87.847656 47.980469 88.367188 47.832031 88.875 C 47.6875 89.359375 47.46875 89.8125 47.179688 90.230469 C 46.886719 90.65625 46.53125 91.023438 46.121094 91.339844 C 45.671875 91.675781 45.1875 91.945312 44.664062 92.136719 C 44.921875 92.269531 45.160156 92.4375 45.382812 92.628906 C 45.609375 92.832031 45.808594 93.0625 45.976562 93.320312 Z M 41.238281 90.242188 C 41.703125 90.253906 42.160156 90.1875 42.601562 90.039062 C 42.953125 89.921875 43.261719 89.734375 43.527344 89.476562 C 43.769531 89.238281 43.949219 88.957031 44.058594 88.632812 C 44.167969 88.296875 44.222656 87.949219 44.222656 87.59375 C 44.257812 86.894531 44.015625 86.3125 43.496094 85.847656 C 43.011719 85.429688 42.261719 85.222656 41.25 85.222656 L 39.65625 85.222656 L 39.65625 90.242188 Z M 41.238281 90.242188 " fill-opacity="1" fill-rule="nonzero"/><path fill="#1d1d1b" d="M 53.984375 82.28125 L 57.917969 82.28125 L 57.917969 99.222656 L 53.984375 99.222656 Z M 53.984375 82.28125 " fill-opacity="1" fill-rule="nonzero"/><path fill="#1d1d1b" d="M 79.289062 82.28125 L 79.289062 99.222656 L 77.246094 99.222656 C 76.980469 99.230469 76.726562 99.179688 76.484375 99.074219 C 76.246094 98.949219 76.042969 98.78125 75.875 98.570312 L 67.914062 88.46875 C 67.941406 88.769531 67.964844 89.0625 67.976562 89.347656 C 67.988281 89.632812 67.996094 89.894531 67.996094 90.144531 L 67.996094 99.222656 L 64.542969 99.222656 L 64.542969 82.28125 L 66.613281 82.28125 C 66.757812 82.277344 66.898438 82.285156 67.042969 82.304688 C 67.148438 82.316406 67.253906 82.34375 67.351562 82.390625 C 67.449219 82.4375 67.539062 82.496094 67.617188 82.570312 C 67.722656 82.667969 67.820312 82.773438 67.90625 82.882812 L 75.933594 93.054688 C 75.894531 92.730469 75.867188 92.414062 75.855469 92.105469 C 75.839844 91.796875 75.828125 91.511719 75.828125 91.238281 L 75.828125 82.28125 Z M 79.289062 82.28125 " fill-opacity="1" fill-rule="nonzero"/><path fill="#1d1d1b" d="M 93.335938 90.441406 L 99.347656 90.441406 L 99.347656 97.59375 C 98.507812 98.21875 97.585938 98.679688 96.582031 98.976562 C 95.578125 99.269531 94.554688 99.410156 93.507812 99.40625 C 92.203125 99.421875 90.933594 99.203125 89.707031 98.75 C 88.613281 98.339844 87.640625 97.738281 86.789062 96.9375 C 85.96875 96.15625 85.339844 95.242188 84.910156 94.191406 C 84.453125 93.085938 84.234375 91.933594 84.246094 90.734375 C 84.234375 89.535156 84.441406 88.371094 84.875 87.253906 C 85.277344 86.210938 85.875 85.296875 86.667969 84.511719 C 87.480469 83.71875 88.421875 83.121094 89.488281 82.722656 C 90.679688 82.277344 91.914062 82.066406 93.1875 82.082031 C 93.851562 82.082031 94.515625 82.136719 95.171875 82.257812 C 95.753906 82.363281 96.328125 82.523438 96.882812 82.730469 C 97.855469 83.105469 98.71875 83.648438 99.480469 84.363281 L 98.339844 86.09375 C 98.179688 86.359375 97.949219 86.527344 97.648438 86.59375 C 97.316406 86.652344 97.011719 86.582031 96.738281 86.386719 C 96.429688 86.199219 96.136719 86.039062 95.859375 85.902344 C 95.589844 85.765625 95.308594 85.65625 95.019531 85.570312 C 94.722656 85.484375 94.421875 85.421875 94.113281 85.386719 C 93.761719 85.34375 93.40625 85.324219 93.054688 85.328125 C 92.363281 85.316406 91.703125 85.445312 91.070312 85.714844 C 90.488281 85.96875 89.984375 86.335938 89.566406 86.816406 C 89.132812 87.320312 88.8125 87.886719 88.605469 88.519531 C 88.375 89.238281 88.261719 89.976562 88.273438 90.734375 C 88.257812 91.554688 88.382812 92.351562 88.644531 93.128906 C 88.871094 93.792969 89.226562 94.378906 89.707031 94.894531 C 90.164062 95.382812 90.707031 95.75 91.332031 95.992188 C 92.003906 96.253906 92.703125 96.378906 93.425781 96.371094 C 93.855469 96.375 94.285156 96.328125 94.707031 96.230469 C 95.089844 96.136719 95.464844 96.011719 95.828125 95.859375 L 95.828125 93.289062 L 94.15625 93.289062 C 93.933594 93.304688 93.742188 93.238281 93.574219 93.089844 C 93.429688 92.957031 93.359375 92.789062 93.367188 92.589844 Z M 93.335938 90.441406 " fill-opacity="1" fill-rule="nonzero"/><path fill="#1d1d1b" d="M 44.007812 103.902344 L 44.007812 114.003906 L 41.652344 114.003906 L 41.652344 109.730469 L 37.554688 109.730469 L 37.554688 114.003906 L 35.199219 114.003906 L 35.199219 103.902344 L 37.554688 103.902344 L 37.554688 108.121094 L 41.652344 108.121094 L 41.652344 103.902344 Z M 44.007812 103.902344 " fill-opacity="1" fill-rule="nonzero"/><path fill="#1d1d1b" d="M 55.421875 114.003906 L 53.605469 114.003906 C 53.425781 114.011719 53.261719 113.964844 53.117188 113.859375 C 52.988281 113.765625 52.894531 113.640625 52.832031 113.496094 L 52.238281 111.734375 L 48.402344 111.734375 L 47.804688 113.496094 C 47.75 113.636719 47.660156 113.753906 47.539062 113.847656 C 47.394531 113.957031 47.230469 114.007812 47.050781 114.003906 L 45.222656 114.003906 L 49.125 103.902344 L 51.515625 103.902344 Z M 51.707031 110.140625 L 50.773438 107.371094 C 50.703125 107.199219 50.628906 106.988281 50.550781 106.753906 C 50.476562 106.515625 50.394531 106.257812 50.316406 105.980469 C 50.246094 106.261719 50.171875 106.511719 50.09375 106.765625 C 50.011719 107.015625 49.941406 107.210938 49.871094 107.386719 L 48.945312 110.140625 Z M 51.707031 110.140625 " fill-opacity="1" fill-rule="nonzero"/><path fill="#1d1d1b" d="M 62.710938 112.128906 L 62.710938 114.003906 L 56.632812 114.003906 L 56.632812 103.902344 L 58.980469 103.902344 L 58.980469 112.128906 Z M 62.710938 112.128906 " fill-opacity="1" fill-rule="nonzero"/><path fill="#1d1d1b" d="M 70.394531 112.128906 L 70.394531 114.003906 L 64.316406 114.003906 L 64.316406 103.902344 L 66.65625 103.902344 L 66.65625 112.128906 Z M 70.394531 112.128906 " fill-opacity="1" fill-rule="nonzero"/><path fill="#1d1d1b" d="M 74.355469 105.703125 L 74.355469 108.058594 L 77.527344 108.058594 L 77.527344 109.804688 L 74.355469 109.804688 L 74.355469 112.195312 L 78.496094 112.195312 L 78.496094 114 L 72.003906 114 L 72.003906 103.894531 L 78.496094 103.894531 L 78.496094 105.699219 Z M 74.355469 105.703125 " fill-opacity="1" fill-rule="nonzero"/></g></g></g></svg>